# Blender v2.90.0 OBJ File: 'Chunks_tank game.blend'
# www.blender.org
o Column_wall_Plane.001
v 0.824032 -0.666428 0.000000
v 0.824032 0.666428 0.000000
v -0.824032 -0.666428 0.000000
v -0.824032 0.666428 0.000000
v -0.470302 -0.470302 4.558105
v 0.470302 -0.470302 4.558105
v 0.470302 0.470302 4.558105
v -0.470302 0.470302 4.558105
vn 0.0000 0.0000 1.0000
vn 0.0000 0.9991 0.0430
vn 0.0000 -0.9991 0.0430
vn -0.9970 0.0000 0.0774
vn 0.9970 0.0000 0.0774
s off
f 6//1 7//1 8//1 5//1
f 2//2 4//2 8//2 7//2
f 3//3 1//3 6//3 5//3
f 4//4 3//4 5//4 8//4
f 1//5 2//5 7//5 6//5